HIERARCHY
ROOT Hips
{
  OFFSET -102.467 93.6631 130.069
  CHANNELS 6 Xposition Yposition Zposition Zrotation Xrotation Yrotation
  JOINT LeftUpLeg
  {
    OFFSET 8.64259 1.95398 -2.38835
    CHANNELS 3 Zrotation Xrotation Yrotation
    JOINT LeftLeg
    {
      OFFSET 43.7702 0 0
      CHANNELS 3 Zrotation Xrotation Yrotation
      JOINT LeftFoot
      {
        OFFSET 40.6238 0 0
        CHANNELS 3 Zrotation Xrotation Yrotation
        JOINT LeftToeBase
        {
          OFFSET 12.7242 0 0
          CHANNELS 3 Zrotation Xrotation Yrotation
          End Site
          {
            OFFSET 0 0 0
          }
        }
      }
    }
  }
  JOINT RightUpLeg
  {
    OFFSET -8.2249 1.95398 -2.59336
    CHANNELS 3 Zrotation Xrotation Yrotation
    JOINT RightLeg
    {
      OFFSET 43.5653 0 0
      CHANNELS 3 Zrotation Xrotation Yrotation
      JOINT RightFoot
      {
        OFFSET 40.6238 0 0
        CHANNELS 3 Zrotation Xrotation Yrotation
        JOINT RightToeBase
        {
          OFFSET 12.7242 0 0
          CHANNELS 3 Zrotation Xrotation Yrotation
          End Site
          {
            OFFSET 0 0 0
          }
        }
      }
    }
  }
  JOINT Spine
  {
    OFFSET 0.165834 0.87714 6.61349
    CHANNELS 3 Zrotation Xrotation Yrotation
    JOINT Spine1
    {
      OFFSET 7.38963 1.71661e-005 0
      CHANNELS 3 Zrotation Xrotation Yrotation
      JOINT Spine2
      {
        OFFSET 11.9445 1.14441e-005 0
        CHANNELS 3 Zrotation Xrotation Yrotation
        JOINT Spine3
        {
          OFFSET 14.7254 4.19617e-005 0
          CHANNELS 3 Zrotation Xrotation Yrotation
          JOINT Spine4
          {
            OFFSET 10.9679 0 0
            CHANNELS 3 Zrotation Xrotation Yrotation
            JOINT RightShoulder
            {
              OFFSET 2.46616 -1.6653 3.69651
              CHANNELS 3 Zrotation Xrotation Yrotation
              JOINT RightArm
              {
                OFFSET 13.0012 0 0
                CHANNELS 3 Zrotation Xrotation Yrotation
                JOINT RightForeArm
                {
                  OFFSET 28.7848 1.52588e-005 0
                  CHANNELS 3 Zrotation Xrotation Yrotation
                  JOINT RightHand
                  {
                    OFFSET 26.5688 1.52588e-005 0
                    CHANNELS 3 Zrotation Xrotation Yrotation
                    End Site
                    {
                      OFFSET 0 0 0
                    }
                  }
                }
              }
            }
            JOINT LeftShoulder
            {
              OFFSET 2.38034 -1.29275 -3.7523
              CHANNELS 3 Zrotation Xrotation Yrotation
              JOINT LeftArm
              {
                OFFSET 16.3182 6.10351e-005 0
                CHANNELS 3 Zrotation Xrotation Yrotation
                JOINT LeftForeArm
                {
                  OFFSET 27.0901 0 0
                  CHANNELS 3 Zrotation Xrotation Yrotation
                  JOINT LeftHand
                  {
                    OFFSET 24.5451 1.52588e-005 0
                    CHANNELS 3 Zrotation Xrotation Yrotation
                    End Site
                    {
                      OFFSET 0 0 0
                    }
                  }
                }
              }
            }
            JOINT Neck
            {
              OFFSET 5.0226 -0.0266342 0
              CHANNELS 3 Zrotation Xrotation Yrotation
              JOINT Head
              {
                OFFSET 6.69363 2.86102e-005 0
                CHANNELS 3 Zrotation Xrotation Yrotation
                End Site
                {
                  OFFSET 0 0 0
                }
              }
            }
          }
        }
      }
    }
  }
}
MOTION
Frames:	13
Frame Time:	0.0416667
-2.47183 11.2615 -57.5393 174.79 0.0998117 176.29 -172.446 2.00878 90.9293 -6.53715 -18.0965 -1.63435 46.6243 -9.13053 -9.90072 16.1988 1.25194 4.33374 173.945 3.09882 82.8474 -6.86161 7.95484 -1.36624 46.2141 14.4992 24.8566 11.5659 3.99875 -1.79697 -0.273062 5.61536 -89.7524 15.6438 -0.414972 0.568625 3.97289 -0.389731 0.588388 -18.5623 -0.565366 0.413437 1.45039 -0.565363 0.41343 99.6514 -40.1718 -86.6227 33.3364 -30.6157 13.2658 -1.3356 -37.7317 -13.1554 -0.320479 -0.00183167 4.73668 -80.1064 -44.6861 93.2072 -24.9035 12.3123 0.909502 -9.86701 55.5636 -0.0396352 -6.68283 -0.158196 -2.53722 23.1015 8.27577 13.2655 -41.9968 7.34688 -11.2568 
-2.50462 11.2287 -57.5539 174.508 0.432288 176.415 -172.36 1.81126 91.1052 -6.60014 -18.1988 -1.58745 46.4818 -9.18807 -10.2007 16.1056 1.27115 4.27263 174.05 2.71266 83.0395 -6.82924 7.76665 -1.44116 46.1392 14.4521 24.4301 12.156 3.84951 -2.22749 -0.299165 5.65323 -89.7544 15.5685 -0.467836 0.566597 3.89748 -0.442388 0.586514 -18.6378 -0.616854 0.400956 1.37486 -0.616855 0.400954 99.8339 -39.6005 -86.3315 33.6199 -29.8738 12.7533 -1.45744 -38.6783 -12.7656 0.378407 0.0497246 3.72653 -80.0939 -44.1804 93.1886 -25.3281 12.2482 0.739995 -9.82029 55.7025 -0.0397759 -6.56482 -0.158185 -2.62608 22.9412 8.10287 13.0283 -41.7478 7.17313 -11.0222 
-2.53987 11.2309 -57.5394 174.533 0.300088 176.516 -172.158 2.00737 91.2921 -6.67834 -19.7995 -1.74773 46.7794 -9.1174 -10.5888 14.0904 1.54179 2.30692 174.2 2.82277 83.2033 -6.80427 8.12382 -1.52933 45.9924 14.5431 24.6365 12.1731 3.84569 -2.15619 -0.288697 5.66742 -89.7743 15.54 -0.457196 0.525904 3.86904 -0.43361 0.545511 -18.6663 -0.594117 0.364185 1.34639 -0.594118 0.364183 99.8842 -39.7642 -86.2323 33.283 -29.8877 12.5069 -1.72603 -39.2813 -12.971 0.594271 0.0688958 3.97453 -80.1397 -44.6016 93.1353 -24.899 12.1668 0.402806 -9.80599 55.734 -0.039808 -7.17561 -0.15814 -2.95978 23.1319 8.08452 13.2533 -41.5412 7.00894 -10.9639 
-2.55866 11.2355 -57.527 174.428 -0.0453339 176.679 -172.086 2.42903 91.4414 -6.72545 -19.6451 -1.75774 46.5899 -9.19318 -10.7598 14.2516 1.51156 2.5912 174.372 3.10771 83.4447 -6.75557 8.28048 -1.53725 46.0004 14.5323 24.4863 12.1167 3.8607 -2.05506 -0.293355 5.67976 -89.8055 15.5154 -0.48208 0.466807 3.84439 -0.461072 0.487573 -18.6912 -0.600089 0.300332 1.3215 -0.600092 0.30034 99.912 -39.8116 -86.1802 32.8934 -30.1195 11.9411 -1.64901 -39.1401 -12.9704 0.597205 0.0702141 4.09847 -80.0524 -45.1092 93.2999 -24.2795 12.3853 -0.263819 -9.9458 55.4805 -0.0395515 -7.31675 -0.15813 -3.03198 24.1922 8.42784 13.7386 -42.4057 7.34815 -11.6018 
-2.65059 11.2525 -57.5272 174.093 -0.00351991 176.987 -171.784 2.52297 91.8674 -6.80975 -19.2748 -1.82818 46.5776 -9.16715 -10.837 14.1862 1.52956 2.40425 174.594 2.90652 83.8739 -6.69774 8.71824 -1.60542 46.1209 14.5071 24.4254 12.065 3.87285 -2.14648 -0.322369 5.75092 -89.8532 15.3731 -0.563752 0.382215 3.70221 -0.54638 0.406639 -18.8337 -0.652556 0.195104 1.17888 -0.652556 0.195105 99.9993 -39.848 -86.0224 32.4444 -29.7435 11.2268 -1.70261 -38.7931 -12.7663 0.462159 0.0526228 3.38638 -80.0909 -45.7334 93.2669 -23.4972 12.7314 -0.946041 -10.1432 54.8621 -0.0389427 -7.37218 -0.158137 -2.98483 25.3426 8.68837 14.0305 -42.9998 7.49629 -11.8671 
-2.65676 11.2466 -57.5376 173.888 -0.329438 177.087 -171.904 2.97833 91.8661 -6.89903 -19.2135 -1.70977 46.6139 -9.1581 -10.9427 13.9807 1.55329 2.3414 174.709 3.17564 84.0246 -6.6425 9.05561 -1.61774 46.0172 14.5655 24.3959 12.144 3.85017 -2.47792 -0.342271 5.79855 -89.8786 15.2779 -0.615983 0.338229 3.60704 -0.600501 0.365006 -18.9292 -0.689159 0.137455 1.08348 -0.689158 0.137443 100.115 -40.0782 -85.8046 31.5705 -30.0889 10.0544 -1.44618 -38.6364 -12.6247 0.617315 0.0707233 4.00896 -79.9363 -46.5883 93.5504 -22.4101 13.046 -1.98321 -10.3263 54.3702 -0.0384747 -7.4135 -0.158133 -3.01418 26.4376 9.026 14.7113 -43.1936 7.64624 -12.466 
-2.72866 11.2719 -57.5395 173.528 -0.429338 177.403 -171.706 3.53106 92.2362 -7.56623 -18.4354 -1.71893 46.7322 -9.25372 -10.9998 14.308 1.51217 2.49794 174.974 3.0818 84.4617 -6.49786 9.89981 -1.74076 45.9815 14.6837 24.5794 11.8377 3.93023 -2.06446 -0.364831 5.87979 -89.941 15.1152 -0.692091 0.222669 3.44441 -0.681621 0.252909 -19.0922 -0.727018 0.00436499 0.92043 -0.727017 0.00436016 100.19 -40.4382 -85.6544 30.5635 -30.1072 9.11717 -1.46893 -38.2027 -12.604 0.486056 0.0580625 3.7868 -79.9519 -47.6035 93.5679 -21.2094 13.3551 -3.08292 -10.5314 53.7806 -0.0379322 -7.3701 -0.15814 -2.96043 28.041 9.57622 15.4879 -44.1798 8.04742 -13.2529 
-2.77514 11.2702 -57.5097 173.345 -0.703549 177.608 -171.562 4.0543 92.4763 -7.95835 -18.2057 -1.78088 46.8393 -9.30507 -11.0857 14.5795 1.48269 2.57106 175.178 3.28776 84.7617 -6.47186 9.98756 -1.76592 46.1568 14.5736 24.2866 11.9191 3.90985 -2.06683 -0.36544 5.96171 -89.999 14.9511 -0.722427 0.109051 3.28034 -0.716928 0.140737 -19.2564 -0.721802 -0.113118 0.756235 -0.7218 -0.113126 100.391 -40.5375 -85.2941 29.5989 -30.2519 7.74503 -1.28695 -37.9875 -12.3265 0.506098 0.0593439 3.74092 -79.8744 -48.7412 93.7337 -19.8026 13.7026 -4.49914 -10.81 53.156 -0.037378 -7.4201 -0.158139 -2.97004 29.1623 9.89925 16.6982 -43.7231 7.77535 -13.6741 
-2.80159 11.2786 -57.5146 173.104 -0.904629 177.838 -171.594 4.56194 92.6351 -8.38895 -18.1051 -1.64397 46.87 -9.40969 -11.3923 14.6717 1.46928 2.6498 175.396 3.40352 85.0756 -6.39959 10.7474 -1.87645 45.8618 14.7448 24.552 12.1979 3.83789 -2.33811 -0.378648 6.06245 -90.0605 14.7493 -0.779373 -0.00827833 3.07859 -0.778976 0.0260267 -19.4583 -0.740852 -0.242137 0.554335 -0.740848 -0.242138 100.533 -40.7954 -85.0346 28.3786 -30.5281 6.27132 -1.14331 -37.5654 -12.2584 0.508839 0.0625412 4.0382 -79.7788 -50.0026 93.9274 -18.3856 13.65 -5.99289 -10.8482 52.8153 -0.0370844 -7.60263 -0.158131 -3.02683 31.6602 10.9662 17.7428 -45.7715 8.80846 -15.224 
-2.86292 11.29 -57.5068 172.877 -1.06913 178.011 -171.498 4.91189 92.8216 -8.58642 -17.4813 -1.66922 47.1775 -9.29405 -11.1822 14.56 1.46017 2.97351 175.496 3.45308 85.3181 -6.32701 10.972 -1.83809 46.1291 14.6559 24.3228 12.09 3.86443 -2.3999 -0.379409 6.17228 -90.1105 14.5294 -0.805717 -0.107365 2.8587 -0.809659 -0.0718127 -19.6781 -0.736201 -0.344566 0.334486 -0.736197 -0.344568 100.744 -40.844 -84.6597 27.391 -30.2745 4.70994 -1.15336 -37.5644 -12.0602 0.804447 0.0818582 3.69428 -79.7428 -51.2347 94.0256 -16.7378 14.0608 -7.60866 -11.1938 52.067 -0.0364598 -7.66708 -0.158127 -3.05263 33.4339 11.5577 18.6184 -46.3263 9.04928 -16.0147 
-2.89752 11.3149 -57.5033 172.787 -1.17376 178.236 -171.317 5.22935 93.1051 -8.95338 -17.5519 -1.71101 47.2808 -9.36943 -11.3722 14.3163 1.51411 2.4556 175.763 3.47427 85.6554 -6.25398 10.9741 -1.97009 46.0274 14.684 24.1722 12.4264 3.77902 -2.45649 -0.35201 6.2905 -90.1693 14.2924 -0.780373 -0.230856 2.62163 -0.789781 -0.196298 -19.9148 -0.674917 -0.454727 0.0978152 -0.674917 -0.454734 101.026 -40.6922 -84.1674 26.563 -30.2915 3.01687 -0.733185 -37.0943 -11.5648 0.78773 0.0788783 3.56938 -80.017 -52.421 93.6603 -15.188 14.3221 -9.07582 -11.4435 51.2566 -0.0358136 -7.64912 -0.158138 -2.97742 35.1314 12.1439 19.6363 -46.9082 9.23295 -16.8507 
-2.90943 11.3504 -57.4863 172.76 -1.28782 178.432 -171.197 5.53145 93.2984 -9.32643 -17.4955 -1.73757 47.4889 -9.37356 -11.4295 14.4715 1.50981 2.28609 175.872 3.55569 85.8723 -6.25334 11.3116 -1.97608 45.9786 14.6859 24.153 12.2291 3.83431 -1.86476 -0.322902 6.41628 -90.2353 14.0403 -0.754961 -0.369636 2.36951 -0.770496 -0.336066 -20.1665 -0.608967 -0.579454 -0.153818 -0.608969 -0.57945 101.276 -40.7441 -83.7267 25.3039 -30.3744 1.26231 -0.233558 -36.1107 -11.1017 0.542481 0.057991 3.31817 -80.1373 -53.8476 93.5395 -13.5036 14.3284 -10.7616 -11.6713 50.6871 -0.035377 -7.62495 -0.158134 -3.00569 37.276 13.0622 20.8528 -48.1431 9.73934 -17.9653 
-2.89324 11.2955 -57.4988 172.661 -1.19972 178.185 -171.42 5.28891 92.9968 -8.96049 -17.3523 -1.66774 47.4634 -9.21427 -11.0952 14.3179 1.51788 2.39229 175.643 3.48957 85.5456 -6.25401 11.4803 -1.90326 46.0463 14.753 24.5162 12.1854 3.83765 -2.71683 -0.299679 6.5556 -90.2416 13.7614 -0.711722 -0.390104 2.09059 -0.728203 -0.358401 -20.4451 -0.561586 -0.585968 -0.432498 -0.561582 -0.585972 101.593 -40.4179 -83.1726 24.6212 -30.1276 -0.463758 -0.246387 -36.5005 -10.9249 1.08371 0.0987425 3.3903 -80.4493 -55.0444 93.1384 -11.9909 14.2447 -12.4102 -11.8671 50.3701 -0.0351402 -7.73289 -0.158127 -3.05557 38.3643 13.4032 22.1204 -47.6059 9.35164 -18.6234 
